<?xml version="1.0" encoding="UTF-8" standalone="no"?>
<svg
   xmlns:dc="http://purl.org/dc/elements/1.1/"
   xmlns:cc="http://creativecommons.org/ns#"
   xmlns:rdf="http://www.w3.org/1999/02/22-rdf-syntax-ns#"
   xmlns:svg="http://www.w3.org/2000/svg"
   xmlns="http://www.w3.org/2000/svg"
   xmlns:sodipodi="http://sodipodi.sourceforge.net/DTD/sodipodi-0.dtd"
   xmlns:inkscape="http://www.inkscape.org/namespaces/inkscape"
   width="1920"
   height="1080"
   viewBox="0 0 508 285.75"
   version="1.1"
   id="svg8"
   inkscape:version="1.0.1 (3bc2e813f5, 2020-09-07)"
   sodipodi:docname="Linux.svg">
  <defs
     id="defs2">
    <inkscape:path-effect
       effect="skeletal"
       id="path-effect853"
       is_visible="true"
       lpeversion="1"
       pattern="M 0,5 C 0,2.24 2.24,0 5,0 7.76,0 10,2.24 10,5 10,7.76 7.76,10 5,10 2.24,10 0,7.76 0,5 Z"
       copytype="single_stretched"
       prop_scale="-0.12862018"
       scale_y_rel="false"
       spacing="0"
       normal_offset="0"
       tang_offset="0"
       prop_units="false"
       vertical_pattern="false"
       hide_knot="false"
       fuse_tolerance="0" />
  </defs>
  <sodipodi:namedview
     id="base"
     pagecolor="#ffffff"
     bordercolor="#666666"
     borderopacity="1.0"
     inkscape:pageopacity="0.0"
     inkscape:pageshadow="2"
     inkscape:zoom="0.98994949"
     inkscape:cx="1085.3746"
     inkscape:cy="561.06386"
     inkscape:document-units="mm"
     inkscape:current-layer="layer1"
     inkscape:document-rotation="0"
     showgrid="false"
     inkscape:window-width="2560"
     inkscape:window-height="1379"
     inkscape:window-x="1920"
     inkscape:window-y="32"
     inkscape:window-maximized="1"
     inkscape:snap-center="false"
     showguides="true"
     inkscape:guide-bbox="true"
     inkscape:snap-bbox="false"
     inkscape:bbox-paths="false"
     inkscape:bbox-nodes="false"
     inkscape:snap-bbox-edge-midpoints="false"
     units="px" />
  <metadata
     id="metadata5">
    <rdf:RDF>
      <cc:Work
         rdf:about="">
        <dc:format>image/svg+xml</dc:format>
        <dc:type
           rdf:resource="http://purl.org/dc/dcmitype/StillImage" />
        <dc:title></dc:title>
      </cc:Work>
    </rdf:RDF>
  </metadata>
  <g
     inkscape:label="Layer 1"
     inkscape:groupmode="layer"
     id="layer1"
     transform="translate(126.24404,20.410715)">
    <rect
       style="opacity:1;fill:#e1d6a9;fill-opacity:1;stroke:none;stroke-width:0.264583;stroke-opacity:1"
       id="rect1184"
       width="508"
       height="285.75"
       x="-126.24404"
       y="-20.410715" />
    <path
       id="path1087"
       style="opacity:1;fill:#1f7e96;fill-opacity:1;stroke:none;stroke-width:0.264583;stroke-opacity:1"
       d="m 260.96795,202.90769 23.23416,39.73091 h 1.02433 l -23.23416,-39.73091 z m 2.04866,0 23.23416,39.73091 h 1.02434 l -23.23416,-39.73091 z m 2.04867,0 23.23416,39.73091 h 1.02433 l -23.23416,-39.73091 z m 2.04866,0 23.23416,39.73091 h 1.02433 l -23.23416,-39.73091 z m 2.04866,0 23.23415,39.73091 h 1.02433 l -23.23415,-39.73091 z" />
    <path
       id="path1081"
       style="opacity:1;fill:#1f7e96;fill-opacity:1;stroke:none;stroke-width:0.264583;stroke-opacity:1"
       d="m 249.72911,202.9077 v 39.73091 h 0.90847 V 202.9077 Z m 1.81694,0 v 39.73091 h 0.90848 V 202.9077 Z m 1.81695,0 v 39.73091 h 0.90847 V 202.9077 Z m 1.81694,0 v 39.73091 h 0.90847 V 202.9077 Z m 1.81694,0 v 39.73091 h 0.90847 V 202.9077 Z" />
    <path
       id="rect897"
       style="fill:#4f6a3f;fill-opacity:1;stroke:none;stroke-width:0.264583;stroke-opacity:1"
       d="M -125.49151,74.007408 H 275.6038 l -10.12436,21.9524 h -390.97095 z"
       sodipodi:nodetypes="ccccc" />
    <path
       id="rect899"
       style="fill:#6da3bb;fill-opacity:1;stroke:none;stroke-width:0.264583;stroke-opacity:1"
       d="M -125.49151,95.959808 H 265.47944 L 254.21915,117.91221 H -125.49151 Z"
       sodipodi:nodetypes="ccccc" />
    <path
       id="rect903"
       style="fill:#ca171d;fill-opacity:1;stroke:none;stroke-width:0.264583;stroke-opacity:1"
       d="M -125.49151,139.86461 H 246.88 l 3.65507,16.01104 6.98697,-16.01104 h 8.29162 l 1.20833,21.9524 h -392.5135 z"
       sodipodi:nodetypes="cccccccc" />
    <path
       id="path955"
       style="fill:#cf8a15;fill-opacity:1;stroke:none;stroke-width:0.264583;stroke-opacity:1"
       d="m 266.82688,117.91221 -11.90053,21.9524 h 10.88731 z m -392.31839,0 h 379.71066 l -7.09416,21.9524 h -372.6165 z" />
    <path
       id="rect958"
       style="opacity:1;fill:#1f7e96;fill-opacity:1;stroke:none;stroke-width:0.999999;stroke-opacity:1"
       d="m 841.23828,766.89453 v 150.16406 h 3.4336 V 766.89453 Z m 6.86719,0 v 150.16406 h 3.43359 V 766.89453 Z m 6.86719,0 v 150.16406 h 3.43359 V 766.89453 Z m 6.86718,0 v 150.16406 h 3.4336 V 766.89453 Z m 6.86719,0 v 150.16406 h 3.43359 V 766.89453 Z"
       transform="scale(0.26458333)" />
    <path
       id="rect960"
       style="opacity:1;fill:#1f7e96;fill-opacity:1;stroke:none;stroke-width:0.999999;stroke-opacity:1"
       d="m 872.14062,886.1582 v 3.4336 h 61.8379 v -3.4336 z m 0,6.86719 v 3.43359 h 61.8379 v -3.43359 z m 0,6.86719 v 3.43359 h 61.8379 v -3.43359 z m 0,6.86719 v 3.43359 h 61.8379 v -3.43359 z m 0,6.86718 v 3.43164 h 61.8379 v -3.43164 z"
       transform="scale(0.26458333)" />
    <path
       id="rect968"
       style="opacity:1;fill:#1f7e96;fill-opacity:1;stroke:none;stroke-width:0.999999;stroke-opacity:1"
       d="m 1122.1562,766.89453 v 96.77539 3.13672 h 0.09 c 1.6629,29.20887 25.8336,52.04278 55.0898,52.04297 29.2562,-1.1e-4 53.427,-22.83406 55.0899,-52.04297 h 0.09 v -3.13672 -96.77539 h -3.3574 l -0.076,96.16797 v 2.94141 h -0.086 c -1.5594,27.39076 -24.225,48.80258 -51.6602,48.80273 -27.4351,-2.3e-4 -50.1007,-21.41201 -51.6601,-48.80273 h -0.084 v -2.94141 l 0.076,-96.16797 z m 6.8672,0 -0.078,96.11914 v 2.75 h 0.08 c 1.4583,25.61564 22.6553,45.64044 48.3125,45.64063 25.6572,-1.2e-4 46.8542,-20.02496 48.3125,-45.64063 h 0.08 v -2.75 l 0.076,-96.11914 h -3.5234 l -0.066,96.42188 v 2.55078 h -0.072 c -1.3524,23.75667 -21.0115,42.32996 -44.8066,42.33008 -23.7952,-1.9e-4 -43.4541,-18.57348 -44.8067,-42.33008 h -0.072 v -2.55078 l 0.064,-96.42188 z m 6.8672,0 -0.066,96.40235 v 2.35937 h 0.068 c 1.2511,21.97557 19.436,39.15606 41.4472,39.15625 22.0113,-1.1e-4 40.1962,-17.18064 41.4473,-39.15625 h 0.068 v -2.35937 l 0.064,-96.40235 h -3.5722 l -0.057,96.93164 v 2.16016 h -0.061 c -1.1456,20.12269 -17.7979,35.85344 -37.9532,35.85351 -20.1552,-1.5e-4 -36.8075,-15.73085 -37.9531,-35.85351 h -0.062 v -2.16016 l 0.057,-96.93164 z m 6.8672,0 -0.055,95.97461 v 1.96875 h 0.057 c 1.0438,18.33543 16.2168,32.66977 34.582,32.66992 18.3652,-7e-5 33.5382,-14.33445 34.582,-32.66992 h 0.057 v -1.96875 l 0.053,-95.97461 h -3.543 v 96.66992 1.77149 h -0.049 c -0.9387,16.48822 -14.5847,29.37688 -31.0997,29.37695 -16.5149,-1.1e-4 -30.1589,-12.88876 -31.0976,-29.37695 h -0.051 v -1.77149 -96.66992 z m 6.8672,0 v 96.49024 1.57421 h 0.045 c 0.8352,14.67156 12.9765,26.14247 27.6718,26.14258 14.6954,-7e-5 26.8367,-11.47098 27.6719,-26.14258 h 0.045 v -1.57421 -96.49024 h -3.3574 l -0.039,96.06836 v 1.38281 h -0.039 c -0.7329,12.87421 -11.3881,22.93938 -24.2832,22.93946 -12.8951,-1.2e-4 -23.5482,-10.06525 -24.2812,-22.93946 h -0.039 v -1.38281 l 0.039,-96.06836 z"
       transform="scale(0.26458333)" />
    <path
       id="path847"
       style="fill:#000000;fill-opacity:1;stroke:none;stroke-width:0.999999px;stroke-linecap:butt;stroke-linejoin:miter;stroke-opacity:1"
       d="m 963.19922,140.85547 c -0.75556,-0.0119 -1.51193,-0.0115 -2.26953,0.002 -5.84609,0.10406 -13.27946,2.72994 -16.75,5.21094 0.0135,-0.54457 85.00201,16.87844 100.64651,72.12695 14.4348,50.97652 -53.50727,129.40077 -82.8262,192.95899 -28.03404,60.77283 -40.36735,101.53556 -36.23047,154.16015 2.46463,31.35217 23.46092,69.22642 32.68164,70.00391 5.42771,0.45766 0.94073,-43.76587 9.22852,-64.77148 5.68543,-14.40995 10.69605,-37.30843 16.49804,-42.88868 9.18074,-8.82996 10.1208,-3.51962 10.10157,-0.0156 0.0975,69.41484 8.6794,123.18697 60.7637,175.61719 10.993,19.59314 -16.0822,36.40477 -17.6172,37.75195 -3.7416,3.28377 4.4398,9.05868 10.2187,5.71875 4.0843,-2.36051 7.76,-4.23482 8.4649,-4.66992 2.6726,-1.64977 0.1201,8.47359 3.166,9.24023 5.4094,1.36158 8.8161,-7.48489 14.3633,-8.07226 4.7632,-0.50438 3.8617,5.74935 8.6289,6.21484 7.2744,0.71029 7.4121,-3.58926 8.9414,-9.81641 0.6182,-2.51746 -4.1314,-10.97239 -3.9863,-22.45898 0.1088,-8.62269 21.9638,-11.54224 28.2246,-5.66602 5.1707,4.85318 -8.9852,28.85764 -3.5977,33.14453 0,0 3.5349,4.6146 6.1348,4.88086 4.78,0.48953 8.0795,-6.93232 12.8652,-6.50195 5.5829,0.50207 6.6618,9.51466 12.0391,7.93164 3.4789,-1.02418 1.9606,-6.21345 5.1133,-8.00586 4.7791,-2.71714 12.0797,6.03367 16.2089,2.4043 3.6023,-3.16622 -3.6339,-8.51375 -14.4453,-19.07031 -4.7207,-4.60952 -9.9517,-24.59388 -5.0937,-29.0586 34.5438,-31.74746 46.6662,-158.6532 45.959,-158.8164 32.1978,32.24288 23.1504,82.17801 21.6035,97.18164 -1.6479,15.98286 7.2776,9.87571 10.5468,4.0625 24.4975,-43.55792 40.4692,-95.83335 32.5293,-144.59375 -12.4276,-76.32117 -55.9736,-129.09463 -85.0039,-193.09766 -20.5563,-45.32052 -23.2756,-105.58115 -63.2363,-135.24023 -26.8577,-19.93395 -76.9108,-7.58413 -75.959,-6.74024 -22.0397,-6.50263 -44.48984,-18.75958 -67.91208,-19.12695 z m -19.01953,5.21289 c -1e-5,2.8e-4 -0.004,-2.9e-4 -0.004,0 v 0.002 c 10e-4,-7.7e-4 0.003,-0.001 0.004,-0.002 z m 20.28125,-0.77148 c 1.91812,-0.0917 9.55381,1.84756 20.34179,5.08984 4.98736,1.62761 10.85159,3.7105 16.85347,6.27148 3.0147,1.2794 6.2585,2.72189 9.4024,4.46875 1.4996,0.83323 2.9521,1.72151 4.3516,2.68555 8.7706,6.10516 15.7577,14.55702 20.1914,20.10742 3.0191,3.7654 5.361,7.02994 6.8984,9.40039 0.8245,1.27121 1.4268,2.29981 1.7949,3.04883 0.1886,0.38377 0.3166,0.69219 0.3789,0.92188 -0.042,0.17212 -0.047,0.28393 -0.043,0.35351 0.01,0.0674 0.022,0.0951 0.025,0.0996 0,-0.004 -0.026,-0.0281 -0.09,-0.0508 -0.066,-0.0233 -0.1759,-0.0451 -0.3535,-0.0488 -0.2053,-0.11778 -0.471,-0.31704 -0.7949,-0.58984 -0.6322,-0.5328 -1.4906,-1.35413 -2.5469,-2.41992 -2.0572,-2.07565 -4.6132,-4.81014 -7.9883,-8.33008 -4.7819,-4.97286 -12.2453,-13.13494 -20.2051,-18.50196 -1.2581,-0.85791 -2.5837,-1.65762 -3.9726,-2.42578 -2.8978,-1.60269 -6.0214,-3.02813 -8.96096,-4.36328 -5.71124,-2.58175 -11.52553,-4.9385 -16.26562,-6.85351 -12.00741,-4.52275 -19.7458,-7.91238 -19.48047,-8.69727 0.0341,-0.0974 0.19001,-0.15297 0.46289,-0.16601 z m 114.98046,30.18164 a 7.7472437,7.7472437 0 0 1 7.7461,7.74609 7.7472437,7.7472437 0 0 1 -7.7461,7.74805 7.7472437,7.7472437 0 0 1 -7.748,-7.74805 7.7472437,7.7472437 0 0 1 7.748,-7.74609 z m -19.5137,53.55468 c 32.0929,17.99377 81.2923,77.75148 127.2618,150.53516 22.8736,36.21596 42.3276,83.17647 49.8925,124.96289 6.0107,33.201 3.5624,63.1354 -3.8261,81.81836 -5.3935,-61.79581 -21.4052,-119.31414 -73.0977,-162.46289 23.4144,78.67423 -10.7287,249.16516 -49.6152,257.8164 l -18.4551,-60.82617 -15.4024,62.2461 c -69.1521,-20.00977 -75.141,-165.24013 -57.3222,-257.67578 -38.34696,49.2181 -67.22054,96.14173 -70.48439,152.92773 -10.71134,-7.72294 -10.72811,-46.55268 4.91797,-96.94531 9.57991,-30.85486 25.03364,-61.95702 45.24414,-97.91016 20.13768,-35.82367 42.06288,-77.53628 53.45698,-104.70508 9.725,-23.1888 10.9389,-42.3598 7.4297,-49.78125 z"
       transform="scale(0.26458333)" />
    <path
       id="path1083"
       style="opacity:1;fill:#1f7e96;fill-opacity:1;stroke:none;stroke-width:0.264583;stroke-opacity:1"
       d="m 260.98636,202.90769 v 39.73091 h 0.90847 v -39.73091 z m 1.81694,3.0095 v 36.72141 h 0.90848 v -36.72141 z m 1.81695,3.0854 v 33.63601 h 0.90847 v -33.63601 z m 1.81694,3.13204 v 30.50397 h 0.90847 v -30.50397 z m 1.81694,3.07977 v 27.4242 h 0.90847 v -27.4242 z"
       sodipodi:nodetypes="ccccccccccccccccccccccccc" />
    <path
       id="path1085"
       style="opacity:1;fill:#1f7e96;fill-opacity:1;stroke:none;stroke-width:0.264583;stroke-opacity:1"
       d="m 285.44528,202.90772 v 27.75115 h 0.90847 v -27.75115 z m 1.81694,0 v 30.88136 h 0.90848 v -30.88136 z m 1.81695,0 v 34.11297 h 0.90847 v -34.11297 z m 1.81694,0 v 37.18319 h 0.90847 v -37.18319 z m 1.81694,0 v 39.73091 h 0.90847 v -39.73091 z"
       sodipodi:nodetypes="ccccccccccccccccccccccccc" />
    <path
       id="path1176"
       style="opacity:1;fill:#1f7e96;fill-opacity:1;stroke:none;stroke-width:0.264583;stroke-opacity:1"
       d="m 328.47698,202.90769 23.23416,39.73091 h 1.02433 l -23.23416,-39.73091 z m 2.04866,0 23.23416,39.73091 h 1.02434 l -23.23416,-39.73091 z m 2.04867,0 23.23416,39.73091 h 1.02433 l -23.23416,-39.73091 z m 2.04866,0 23.23416,39.73091 h 1.02433 L 335.6473,202.90769 Z m 2.04866,0 23.23415,39.73091 h 1.02433 l -23.23415,-39.73091 z" />
    <path
       id="path1178"
       style="opacity:1;fill:#1f7e96;fill-opacity:1;stroke:none;stroke-width:0.999999;stroke-opacity:1"
       d="m 1329.3027,766.89453 -26.9414,46.06836 1.9707,3.25195 28.8418,-49.32031 z m 7.7422,0 -30.7422,52.57227 1.9688,3.25 32.6445,-55.82227 z m 7.7422,0 -34.5449,59.07422 1.9707,3.25195 36.4473,-62.32617 z m 7.7441,0 -38.3496,65.57813 1.9707,3.25195 40.25,-68.83008 z m 7.7422,0 -42.1523,72.08008 1.9707,3.25195 44.0527,-75.33203 z m -74.2539,74.01563 -44.5312,76.14843 h 3.8711 l 42.6289,-72.89648 z m 3.9395,6.5039 -40.7285,69.64453 h 3.8711 l 38.8261,-66.39453 z m 3.9394,6.50196 -36.9238,63.14257 h 3.8711 l 35.0234,-59.89062 z m 3.9414,6.5039 -33.123,56.63867 h 3.8711 l 31.2207,-53.38867 z m 3.9395,6.50196 -29.3203,50.13671 h 3.873 l 27.418,-46.88476 z"
       transform="scale(0.26458333)" />
  </g>
</svg>
